<svg width="126" height="30" viewBox="0 0 126 30" fill="none" xmlns="http://www.w3.org/2000/svg">
<g clip-path="url(#clip0_249_9)">
<path d="M11.3137 22.1421L14.1421 19.3137L11.3137 16.4853L8.48528 19.3137L11.3137 22.1421Z" fill="white"/>
<path d="M19.799 22.1421L16.9706 19.3137L19.799 16.4853L22.6274 19.3137L19.799 22.1421Z" fill="white"/>
<path d="M18.3848 15.0711L15.5563 17.8995L12.7279 15.0711L15.5563 12.2426L18.3848 15.0711Z" fill="white"/>
<path d="M14.1421 10.8284L11.3137 13.6569L8.48528 10.8284L11.3137 8L14.1421 10.8284Z" fill="white"/>
<path d="M7.07106 17.8995L9.89949 15.0711L7.07106 12.2426L4.24263 15.0711L7.07106 17.8995Z" fill="white"/>
<path d="M2.82842 22.1421L5.65685 19.3137L2.82842 16.4853L-5.72205e-06 19.3137L2.82842 22.1421Z" fill="white"/>
</g>
<path d="M34.4805 22.2344C33.1914 22.2344 32.0423 21.9186 31.0332 21.2871C30.0241 20.6556 29.2298 19.7767 28.6504 18.6504C28.0775 17.5241 27.791 16.2188 27.791 14.7344C27.791 13.2435 28.0775 11.9349 28.6504 10.8086C29.2298 9.67578 30.0241 8.79362 31.0332 8.16211C32.0423 7.5306 33.1914 7.21484 34.4805 7.21484C35.776 7.21484 36.9284 7.5306 37.9375 8.16211C38.9466 8.79362 39.7376 9.67578 40.3105 10.8086C40.89 11.9349 41.1797 13.2435 41.1797 14.7344C41.1797 16.2188 40.89 17.5241 40.3105 18.6504C39.7376 19.7767 38.9466 20.6556 37.9375 21.2871C36.9284 21.9186 35.776 22.2344 34.4805 22.2344ZM34.4805 20.252C35.3203 20.252 36.082 20.0404 36.7656 19.6172C37.4492 19.1875 37.9928 18.5625 38.3965 17.7422C38.8001 16.9154 39.002 15.9128 39.002 14.7344C39.002 13.5495 38.8001 12.5436 38.3965 11.7168C37.9928 10.89 37.4492 10.265 36.7656 9.8418C36.082 9.41211 35.3203 9.19727 34.4805 9.19727C33.6471 9.19727 32.8887 9.41211 32.2051 9.8418C31.5215 10.265 30.9779 10.89 30.5742 11.7168C30.1706 12.5436 29.9688 13.5495 29.9688 14.7344C29.9688 15.9128 30.1706 16.9154 30.5742 17.7422C30.9779 18.5625 31.5215 19.1875 32.2051 19.6172C32.8887 20.0404 33.6471 20.252 34.4805 20.252ZM42.5426 26.082V11.6875H44.5641V13.1719H44.5934C44.9189 12.6055 45.3648 12.1823 45.9312 11.9023C46.4977 11.6224 47.1161 11.4824 47.7867 11.4824C48.6721 11.4824 49.4501 11.7103 50.1207 12.166C50.7913 12.6152 51.3121 13.2435 51.6832 14.0508C52.0608 14.8516 52.2496 15.7826 52.2496 16.8438C52.2496 17.9049 52.0641 18.8392 51.693 19.6465C51.3219 20.4473 50.801 21.0755 50.1305 21.5312C49.4599 21.9805 48.6754 22.2051 47.777 22.2051C47.1064 22.2051 46.5009 22.0586 45.9605 21.7656C45.4202 21.4727 44.9775 21.0332 44.6324 20.4473H44.6031V26.082H42.5426ZM47.357 20.4277C48.1904 20.4277 48.8642 20.1217 49.3785 19.5098C49.8993 18.8978 50.1598 18.0091 50.1598 16.8438C50.1598 15.6784 49.8993 14.7897 49.3785 14.1777C48.8642 13.5592 48.1904 13.25 47.357 13.25C46.4781 13.25 45.775 13.5788 45.2477 14.2363C44.7268 14.8874 44.4664 15.7565 44.4664 16.8438C44.4664 17.9245 44.7268 18.7936 45.2477 19.4512C45.775 20.1022 46.4781 20.4277 47.357 20.4277ZM57.8703 22.2344C56.8482 22.2344 55.9693 22.0033 55.2336 21.541C54.5044 21.0788 53.9413 20.444 53.5441 19.6367C53.1535 18.8229 52.9582 17.8984 52.9582 16.8633C52.9582 15.8151 53.1633 14.8841 53.5734 14.0703C53.9836 13.2565 54.55 12.6185 55.2727 12.1562C55.9953 11.6875 56.8254 11.4531 57.7629 11.4531C58.7395 11.4531 59.5858 11.681 60.302 12.1367C61.0246 12.5924 61.5845 13.2272 61.9816 14.041C62.3788 14.8483 62.5773 15.7826 62.5773 16.8438V17.4004H54.9895C55.0285 18.3314 55.2954 19.0833 55.7902 19.6562C56.2915 20.2292 56.9947 20.5156 57.8996 20.5156C58.5767 20.5156 59.1333 20.3626 59.5695 20.0566C60.0057 19.7507 60.2954 19.3535 60.4387 18.8652H62.4211C62.2974 19.5293 62.0207 20.1152 61.591 20.623C61.1678 21.1309 60.634 21.528 59.9895 21.8145C59.3514 22.0944 58.6451 22.2344 57.8703 22.2344ZM55.009 15.8379H60.5656C60.481 15.0176 60.1913 14.3698 59.6965 13.8945C59.2017 13.4128 58.5637 13.1719 57.7824 13.1719C57.0012 13.1719 56.3632 13.4128 55.8684 13.8945C55.3801 14.3698 55.0936 15.0176 55.009 15.8379ZM65.825 16.0625V22H63.7645V11.6875H65.7859V13.2402C66.4891 12.0684 67.5275 11.4824 68.9012 11.4824C69.6108 11.4824 70.2456 11.6387 70.8055 11.9512C71.3719 12.2572 71.8178 12.7129 72.1434 13.3184C72.4689 13.9238 72.6316 14.6758 72.6316 15.5742V22H70.5711V15.8281C70.5711 15.0013 70.3725 14.3796 69.9754 13.9629C69.5783 13.5397 69.0249 13.3281 68.3152 13.3281C67.6121 13.3281 67.0197 13.5462 66.5379 13.9824C66.0626 14.4121 65.825 15.1055 65.825 16.0625ZM76.4164 16.0625V22H74.3559V7.44922H76.4164V13.1719C77.126 12.0456 78.1514 11.4824 79.4926 11.4824C80.2022 11.4824 80.837 11.6387 81.3969 11.9512C81.9633 12.2572 82.4092 12.7129 82.7348 13.3184C83.0603 13.9238 83.223 14.6758 83.223 15.5742V22H81.1625V15.8281C81.1625 15.0013 80.9639 14.3796 80.5668 13.9629C80.1697 13.5397 79.6163 13.3281 78.9066 13.3281C78.2035 13.3281 77.6111 13.5462 77.1293 13.9824C76.654 14.4121 76.4164 15.1055 76.4164 16.0625ZM89.3809 22.2344C88.3978 22.2344 87.5352 22.0065 86.793 21.5508C86.0508 21.0951 85.4714 20.4635 85.0547 19.6562C84.6445 18.849 84.4395 17.918 84.4395 16.8633C84.4395 15.7956 84.6445 14.8581 85.0547 14.0508C85.4714 13.237 86.0508 12.6022 86.793 12.1465C87.5352 11.6842 88.3978 11.4531 89.3809 11.4531C90.3639 11.4531 91.2233 11.6842 91.959 12.1465C92.7012 12.6022 93.2773 13.237 93.6875 14.0508C94.1042 14.8581 94.3125 15.7956 94.3125 16.8633C94.3125 17.918 94.1042 18.849 93.6875 19.6562C93.2773 20.4635 92.7012 21.0951 91.959 21.5508C91.2233 22.0065 90.3639 22.2344 89.3809 22.2344ZM89.3809 20.457C90.2663 20.457 90.9629 20.1315 91.4707 19.4805C91.9785 18.8294 92.2324 17.957 92.2324 16.8633C92.2324 15.7565 91.9753 14.8743 91.4609 14.2168C90.9531 13.5592 90.2598 13.2305 89.3809 13.2305C88.502 13.2305 87.8053 13.5592 87.291 14.2168C86.7832 14.8678 86.5293 15.75 86.5293 16.8633C86.5293 17.9635 86.7832 18.8392 87.291 19.4902C87.7988 20.1348 88.4954 20.457 89.3809 20.457ZM99.2691 22.2051C98.566 22.2051 97.9313 22.0521 97.3648 21.7461C96.8049 21.4336 96.359 20.9746 96.027 20.3691C95.7014 19.7637 95.5387 19.0117 95.5387 18.1133V11.6875H97.5992V17.8594C97.5992 18.6862 97.7978 19.3112 98.1949 19.7344C98.5921 20.151 99.1487 20.3594 99.8648 20.3594C100.561 20.3594 101.147 20.1445 101.623 19.7148C102.104 19.2786 102.345 18.582 102.345 17.625V11.6875H104.406V22H102.384V20.4473C101.681 21.6191 100.643 22.2051 99.2691 22.2051ZM109.948 22.2441C109.161 22.2441 108.451 22.1172 107.82 21.8633C107.188 21.6094 106.677 21.2318 106.286 20.7305C105.902 20.2292 105.687 19.6074 105.642 18.8652H107.673C107.79 20.0241 108.536 20.6035 109.909 20.6035C110.56 20.6035 111.075 20.4701 111.452 20.2031C111.836 19.9362 112.029 19.5977 112.029 19.1875C112.029 18.8359 111.892 18.556 111.618 18.3477C111.345 18.1328 110.987 17.9766 110.544 17.8789L108.835 17.498C106.863 17.0684 105.876 16.0853 105.876 14.5488C105.876 13.6374 106.238 12.8952 106.96 12.3223C107.689 11.7493 108.643 11.4629 109.821 11.4629C110.987 11.4629 111.944 11.7656 112.693 12.3711C113.448 12.9701 113.838 13.7904 113.864 14.832H111.892C111.885 14.3307 111.696 13.9173 111.325 13.5918C110.954 13.2598 110.463 13.0938 109.851 13.0938C109.265 13.0938 108.799 13.2305 108.454 13.5039C108.109 13.7773 107.937 14.1126 107.937 14.5098C107.937 14.8613 108.067 15.1445 108.327 15.3594C108.594 15.5742 108.959 15.7337 109.421 15.8379L111.179 16.2285C112.182 16.4499 112.92 16.7917 113.396 17.2539C113.871 17.7161 114.109 18.3216 114.109 19.0703C114.109 19.7279 113.926 20.2943 113.562 20.7695C113.204 21.2383 112.712 21.6029 112.087 21.8633C111.462 22.1172 110.749 22.2441 109.948 22.2441ZM119.739 22.2344C118.717 22.2344 117.838 22.0033 117.102 21.541C116.373 21.0788 115.81 20.444 115.413 19.6367C115.022 18.8229 114.827 17.8984 114.827 16.8633C114.827 15.8151 115.032 14.8841 115.442 14.0703C115.852 13.2565 116.419 12.6185 117.141 12.1562C117.864 11.6875 118.694 11.4531 119.632 11.4531C120.608 11.4531 121.455 11.681 122.171 12.1367C122.893 12.5924 123.453 13.2272 123.85 14.041C124.248 14.8483 124.446 15.7826 124.446 16.8438V17.4004H116.858C116.897 18.3314 117.164 19.0833 117.659 19.6562C118.16 20.2292 118.863 20.5156 119.768 20.5156C120.445 20.5156 121.002 20.3626 121.438 20.0566C121.874 19.7507 122.164 19.3535 122.307 18.8652H124.29C124.166 19.5293 123.889 20.1152 123.46 20.623C123.037 21.1309 122.503 21.528 121.858 21.8145C121.22 22.0944 120.514 22.2344 119.739 22.2344ZM116.878 15.8379H122.434C122.35 15.0176 122.06 14.3698 121.565 13.8945C121.07 13.4128 120.432 13.1719 119.651 13.1719C118.87 13.1719 118.232 13.4128 117.737 13.8945C117.249 14.3698 116.962 15.0176 116.878 15.8379Z" fill="white"/>
<defs>
<clipPath id="clip0_249_9">
<rect width="23" height="14" fill="white" transform="translate(0 8)"/>
</clipPath>
</defs>
</svg>
