<svg width="23" height="24" viewBox="0 0 23 24" fill="none" xmlns="http://www.w3.org/2000/svg">
<g clip-path="url(#clip0_234_6)">
<path d="M11.3137 19.1421L14.1421 16.3137L11.3137 13.4853L8.48528 16.3137L11.3137 19.1421Z" fill="#222623"/>
<path d="M19.799 19.1421L16.9706 16.3137L19.799 13.4853L22.6274 16.3137L19.799 19.1421Z" fill="#222623"/>
<path d="M18.3848 12.0711L15.5563 14.8995L12.7279 12.0711L15.5563 9.24264L18.3848 12.0711Z" fill="#222623"/>
<path d="M14.1421 7.82842L11.3137 10.6569L8.48528 7.82842L11.3137 5L14.1421 7.82842Z" fill="#222623"/>
<path d="M7.07106 14.8995L9.89949 12.0711L7.07106 9.24264L4.24263 12.0711L7.07106 14.8995Z" fill="#222623"/>
<path d="M2.82842 19.1421L5.65685 16.3137L2.82842 13.4853L-5.72205e-06 16.3137L2.82842 19.1421Z" fill="#222623"/>
</g>
<defs>
<clipPath id="clip0_234_6">
<rect width="23" height="14" fill="white" transform="translate(0 5)"/>
</clipPath>
</defs>
</svg>
