<svg width="131" height="30" viewBox="0 0 131 30" fill="none" xmlns="http://www.w3.org/2000/svg">
<g clip-path="url(#clip0_299_3856)">
<path d="M11.3137 22.1421L14.1422 19.3137L11.3137 16.4853L8.48531 19.3137L11.3137 22.1421Z" fill="#3A3A3A"/>
<path d="M19.799 22.1421L16.9706 19.3137L19.799 16.4853L22.6274 19.3137L19.799 22.1421Z" fill="#3A3A3A"/>
<path d="M18.3848 15.0711L15.5564 17.8995L12.7279 15.0711L15.5564 12.2427L18.3848 15.0711Z" fill="#3A3A3A"/>
<path d="M14.1422 10.8284L11.3137 13.6569L8.48531 10.8284L11.3137 8.00001L14.1422 10.8284Z" fill="#3A3A3A"/>
<path d="M7.07109 17.8995L9.89952 15.0711L7.07109 12.2427L4.24267 15.0711L7.07109 17.8995Z" fill="#3A3A3A"/>
<path d="M2.82845 22.1421L5.65688 19.3137L2.82845 16.4853L2.47955e-05 19.3137L2.82845 22.1421Z" fill="#3A3A3A"/>
</g>
<path d="M30.3 14.74C30.3 18.36 32.28 20.36 34.82 20.36C37.32 20.36 39.32 18.36 39.32 14.74C39.32 11.1 37.32 9.14 34.82 9.14C32.28 9.14 30.3 11.1 30.3 14.74ZM41.66 14.74C41.66 19.16 39.02 22.26 34.82 22.26C30.6 22.26 27.96 19.16 27.96 14.74C27.96 10.32 30.6 7.24 34.82 7.24C39.02 7.24 41.66 10.32 41.66 14.74ZM43.425 11.24H45.505V12.82C46.165 11.7 47.265 11.04 48.865 11.04C51.365 11.04 53.505 13.12 53.505 16.64C53.505 20.16 51.365 22.26 48.865 22.26C47.265 22.26 46.165 21.6 45.505 20.48V25.5H43.425V11.24ZM45.425 16.64C45.425 19.3 46.785 20.52 48.385 20.52C50.125 20.52 51.285 19.06 51.285 16.64C51.285 14.22 50.125 12.78 48.385 12.78C46.785 12.78 45.425 13.98 45.425 16.64ZM59.6697 20.48C61.1897 20.48 62.0297 19.86 62.4897 18.84H64.5897C64.1097 20.62 62.4697 22.26 59.7497 22.26C56.2897 22.26 54.3897 19.72 54.3897 16.6C54.3897 13.26 56.6297 11.04 59.6897 11.04C63.0097 11.04 64.9497 13.76 64.7297 17.26H56.5297C56.7497 19.26 57.9697 20.48 59.6697 20.48ZM59.6697 12.74C58.0497 12.74 56.8697 13.56 56.5697 15.62H62.5697C62.5097 14.04 61.3697 12.74 59.6697 12.74ZM68.2503 11.24V12.8C68.8703 11.74 69.9503 11.04 71.6303 11.04C74.2303 11.04 75.2303 12.72 75.2303 15.22V22H73.1503V15.78C73.1503 14.24 72.9103 12.78 70.9303 12.78C69.1103 12.78 68.2503 14.06 68.2503 16.22V22H66.1703V11.24H68.2503ZM79.3105 7.5V12.8C79.9305 11.74 81.0105 11.04 82.6905 11.04C85.2905 11.04 86.2905 12.72 86.2905 15.22V22H84.2105V15.78C84.2105 14.24 83.9705 12.78 81.9905 12.78C80.1705 12.78 79.3105 14.06 79.3105 16.22V22H77.2305V7.5H79.3105ZM89.7706 16.66C89.7706 19.3 91.2306 20.5 92.7906 20.5C94.3906 20.5 95.8306 19.28 95.8306 16.66C95.8306 14 94.3906 12.8 92.7906 12.8C91.2306 12.8 89.7706 13.94 89.7706 16.66ZM92.7906 11.04C95.3506 11.04 98.0306 12.76 98.0306 16.66C98.0306 20.54 95.3506 22.26 92.7906 22.26C90.2506 22.26 87.5706 20.54 87.5706 16.66C87.5706 12.76 90.2506 11.04 92.7906 11.04ZM106.147 22V20.48C105.527 21.58 104.487 22.26 102.867 22.26C100.327 22.26 99.347 20.7 99.347 18.08V11.24H101.427V17.52C101.427 19.06 101.687 20.5 103.567 20.5C105.327 20.5 106.167 19.22 106.167 17.08V11.24H108.247V22H106.147ZM118.61 14.24H116.55C116.25 13.12 115.33 12.7 114.11 12.7C113.09 12.7 111.99 13.12 111.99 14C111.99 14.8 112.51 15.12 113.49 15.34L115.03 15.64C117.05 16.06 118.85 16.72 118.85 18.84C118.85 21.02 116.81 22.26 114.33 22.26C111.59 22.26 109.95 20.68 109.69 18.66H111.81C112.11 19.88 112.87 20.6 114.39 20.6C115.75 20.6 116.77 20.04 116.77 19.08C116.77 18.1 115.83 17.68 114.71 17.46L113.09 17.14C111.47 16.82 109.95 16.12 109.95 14.08C109.95 12.18 111.97 11.02 114.31 11.02C116.49 11.02 118.19 12.16 118.61 14.24ZM124.878 20.48C126.398 20.48 127.238 19.86 127.698 18.84H129.798C129.318 20.62 127.678 22.26 124.958 22.26C121.498 22.26 119.598 19.72 119.598 16.6C119.598 13.26 121.838 11.04 124.898 11.04C128.218 11.04 130.158 13.76 129.938 17.26H121.738C121.958 19.26 123.178 20.48 124.878 20.48ZM124.878 12.74C123.258 12.74 122.078 13.56 121.778 15.62H127.778C127.718 14.04 126.578 12.74 124.878 12.74Z" fill="#3A3A3A"/>
<defs>
<clipPath id="clip0_299_3856">
<rect width="23" height="14" fill="white" transform="translate(0 8)"/>
</clipPath>
</defs>
</svg>
