<svg width="202" height="31" viewBox="0 0 202 31" fill="none" xmlns="http://www.w3.org/2000/svg">
<path d="M19.9705 23.8054L24.7315 19.0443L19.9705 14.2832L15.2094 19.0443L19.9705 23.8054Z" fill="white"/>
<path d="M34.2537 23.8054L29.4926 19.0443L34.2537 14.2832L39.0148 19.0443L34.2537 23.8054Z" fill="white"/>
<path d="M31.8732 11.9027L27.1121 16.6638L22.351 11.9027L27.1121 7.14162L31.8732 11.9027Z" fill="white"/>
<path d="M24.7315 4.76109L19.9705 9.52216L15.2094 4.76109L19.9705 1.35608e-05L24.7315 4.76109Z" fill="white"/>
<path d="M12.8289 16.6638L17.5899 11.9027L12.8289 7.14163L8.06779 11.9027L12.8289 16.6638Z" fill="white"/>
<path d="M5.68725 23.8054L10.4483 19.0443L5.68725 14.2832L0.926175 19.0443L5.68725 23.8054Z" fill="white"/>
<path d="M201.87 14.816C201.87 15.264 201.87 15.744 201.838 16H189.294C189.358 18.72 190.958 21.248 194.19 21.248C197.07 21.248 198.19 19.392 198.478 18.304H201.678C200.814 21.44 198.414 23.808 194.126 23.808C188.942 23.808 186.062 20.128 186.062 15.136C186.062 10.016 189.134 6.49597 194.126 6.49597C199.086 6.49597 201.87 9.75997 201.87 14.816ZM189.294 13.536H198.606C198.606 10.976 196.814 9.05597 194.03 9.05597C191.406 9.05597 189.486 10.848 189.294 13.536Z" fill="white"/>
<path d="M178.341 23.776C173.381 23.776 170.917 21.216 170.821 17.888H173.989C174.117 19.776 175.269 21.248 178.309 21.248C181.061 21.248 181.797 20.032 181.797 18.848C181.797 16.8 179.621 16.576 177.509 16.128C174.661 15.456 171.397 14.624 171.397 11.232C171.397 8.41602 173.669 6.52802 177.605 6.52802C182.085 6.52802 184.229 8.92802 184.453 11.744H181.285C181.061 10.496 180.389 9.05602 177.669 9.05602C175.557 9.05602 174.661 9.88802 174.661 11.104C174.661 12.8 176.485 12.96 178.789 13.472C181.797 14.176 185.061 15.04 185.061 18.688C185.061 21.856 182.629 23.776 178.341 23.776Z" fill="white"/>
<path d="M165.895 17.024V7.008H169.031V23.328H165.895V21.28H165.831C164.967 22.528 163.271 23.776 160.455 23.776C157.447 23.776 155.015 22.048 155.015 18.304V7.008H158.151V17.44C158.151 19.648 159.111 21.12 161.479 21.12C164.167 21.12 165.895 19.488 165.895 17.024Z" fill="white"/>
<path d="M144.954 23.808C139.866 23.808 136.794 20.288 136.794 15.168C136.794 10.08 139.866 6.49597 144.986 6.49597C150.042 6.49597 153.114 10.048 153.114 15.136C153.114 20.256 150.042 23.808 144.954 23.808ZM144.986 21.216C148.314 21.216 149.85 18.56 149.85 15.168C149.85 11.744 148.314 9.11997 144.986 9.11997C141.594 9.11997 140.058 11.744 140.058 15.168C140.058 18.56 141.594 21.216 144.986 21.216Z" fill="white"/>
<path d="M129.468 6.528C132.476 6.528 134.908 8.256 134.908 12V23.328H131.772V12.864C131.772 10.688 130.812 9.216 128.444 9.216C125.756 9.216 124.028 10.848 124.028 13.312V23.328H120.892V0.447998H124.028V9.056H124.092C124.956 7.808 126.652 6.528 129.468 6.528Z" fill="white"/>
<path d="M112.701 6.52802C115.709 6.52802 118.141 8.25602 118.141 12V23.328H115.005V12.864C115.005 10.688 114.045 9.21602 111.677 9.21602C108.989 9.21602 107.261 10.848 107.261 13.312V23.328H104.125V7.00801H107.261V9.05602H107.325C108.189 7.80802 109.885 6.52802 112.701 6.52802Z" fill="white"/>
<path d="M102.116 14.816C102.116 15.264 102.116 15.744 102.084 16H89.5405C89.6045 18.72 91.2045 21.248 94.4365 21.248C97.3165 21.248 98.4365 19.392 98.7245 18.304H101.924C101.06 21.44 98.6605 23.808 94.3725 23.808C89.1885 23.808 86.3085 20.128 86.3085 15.136C86.3085 10.016 89.3805 6.49597 94.3725 6.49597C99.3325 6.49597 102.116 9.75997 102.116 14.816ZM89.5405 13.536H98.8525C98.8525 10.976 97.0605 9.05597 94.2765 9.05597C91.6525 9.05597 89.7325 10.848 89.5405 13.536Z" fill="white"/>
<path d="M77.7545 6.52802C81.9145 6.52802 85.0825 9.79202 85.0825 15.168C85.0825 20.544 81.9145 23.776 77.7545 23.776C75.1945 23.776 73.6265 22.624 72.7305 21.312H72.6665V28.992H69.5305V7.00801H72.6665V8.92802H72.7305C73.6265 7.77602 75.1945 6.52802 77.7545 6.52802ZM77.2425 21.184C80.3145 21.184 81.7865 18.368 81.7865 15.168C81.7865 11.968 80.3145 9.15202 77.2425 9.15202C74.4265 9.15202 72.6985 11.456 72.6985 15.168C72.6985 18.848 74.4265 21.184 77.2425 21.184Z" fill="white"/>
<path d="M56.232 23.776C49.384 23.776 45 18.752 45 11.872C45 4.992 49.384 0 56.232 0C63.08 0 67.464 4.992 67.464 11.872C67.464 18.752 63.08 23.776 56.232 23.776ZM56.232 20.736C61.64 20.736 63.784 16.576 63.784 11.872C63.784 7.168 61.64 3.04 56.232 3.04C50.824 3.04 48.68 7.168 48.68 11.872C48.68 16.576 50.824 20.736 56.232 20.736Z" fill="white"/>
</svg>
