<svg width="127" height="30" viewBox="0 0 127 30" fill="none" xmlns="http://www.w3.org/2000/svg">
<g clip-path="url(#clip0_239_5)">
<path d="M11.3137 22.1421L14.1421 19.3137L11.3137 16.4853L8.48528 19.3137L11.3137 22.1421Z" fill="#222623"/>
<path d="M19.799 22.1421L16.9706 19.3137L19.799 16.4853L22.6274 19.3137L19.799 22.1421Z" fill="#222623"/>
<path d="M18.3848 15.0711L15.5563 17.8995L12.7279 15.0711L15.5563 12.2427L18.3848 15.0711Z" fill="#222623"/>
<path d="M14.1421 10.8284L11.3137 13.6569L8.48528 10.8284L11.3137 8.00001L14.1421 10.8284Z" fill="#222623"/>
<path d="M7.07106 17.8995L9.89949 15.0711L7.07106 12.2427L4.24263 15.0711L7.07106 17.8995Z" fill="#222623"/>
<path d="M2.82842 22.1421L5.65685 19.3137L2.82842 16.4853L-5.72205e-06 19.3137L2.82842 22.1421Z" fill="#222623"/>
</g>
<path d="M34.4805 22.2344C33.1784 22.2344 32.0163 21.9251 30.9941 21.3066C29.9785 20.6816 29.1745 19.8092 28.582 18.6895C27.9961 17.5632 27.7031 16.2448 27.7031 14.7344C27.7031 13.2174 27.9961 11.8958 28.582 10.7695C29.1745 9.64323 29.9785 8.77083 30.9941 8.15234C32.0163 7.52734 33.1784 7.21484 34.4805 7.21484C35.776 7.21484 36.9349 7.52734 37.957 8.15234C38.9792 8.77083 39.7832 9.64323 40.3691 10.7695C40.9616 11.8958 41.2578 13.2174 41.2578 14.7344C41.2578 16.2448 40.9616 17.5632 40.3691 18.6895C39.7832 19.8158 38.9792 20.6882 37.957 21.3066C36.9349 21.9251 35.776 22.2344 34.4805 22.2344ZM34.4805 19.9199C35.2747 19.9199 35.9844 19.7181 36.6094 19.3145C37.2409 18.9108 37.7389 18.3249 38.1035 17.5566C38.4681 16.7819 38.6504 15.8411 38.6504 14.7344C38.6504 13.6211 38.4681 12.6771 38.1035 11.9023C37.7389 11.1276 37.2409 10.5384 36.6094 10.1348C35.9844 9.73112 35.2747 9.5293 34.4805 9.5293C33.6862 9.5293 32.9733 9.73112 32.3418 10.1348C31.7168 10.5384 31.2188 11.1276 30.8477 11.9023C30.4831 12.6771 30.3008 13.6211 30.3008 14.7344C30.3008 15.8411 30.4831 16.7819 30.8477 17.5566C31.2188 18.3249 31.7168 18.9108 32.3418 19.3145C32.9733 19.7181 33.6862 19.9199 34.4805 19.9199ZM42.4547 26.082V11.6875H44.8766V13.123H44.9059C45.2314 12.5762 45.6676 12.166 46.2145 11.8926C46.7613 11.6191 47.3668 11.4824 48.0309 11.4824C48.9163 11.4824 49.691 11.7103 50.3551 12.166C51.0257 12.6152 51.5465 13.2435 51.9176 14.0508C52.2952 14.8516 52.484 15.7793 52.484 16.834C52.484 17.9082 52.2984 18.849 51.9273 19.6562C51.5628 20.457 51.0452 21.082 50.3746 21.5312C49.704 21.9805 48.9195 22.2051 48.0211 22.2051C47.344 22.2051 46.7418 22.0586 46.2145 21.7656C45.6936 21.4727 45.2704 21.0332 44.9449 20.4473H44.9156V26.082H42.4547ZM47.4449 20.1445C48.2066 20.1445 48.8219 19.8613 49.2906 19.2949C49.7594 18.722 49.9937 17.9017 49.9937 16.834C49.9937 15.7728 49.7594 14.9557 49.2906 14.3828C48.8219 13.8099 48.2066 13.5234 47.4449 13.5234C46.6376 13.5234 45.9898 13.8262 45.5016 14.4316C45.0198 15.0306 44.7789 15.8314 44.7789 16.834C44.7789 17.8366 45.0198 18.6406 45.5016 19.2461C45.9898 19.8451 46.6376 20.1445 47.4449 20.1445ZM58.1437 22.2344C57.1151 22.2344 56.2232 22.0033 55.468 21.541C54.7128 21.0788 54.1301 20.444 53.7199 19.6367C53.3163 18.8229 53.1145 17.8952 53.1145 16.8535C53.1145 15.8053 53.3228 14.8776 53.7395 14.0703C54.1626 13.2565 54.7453 12.6185 55.4875 12.1562C56.2297 11.6875 57.0826 11.4531 58.0461 11.4531C59.0357 11.4531 59.9016 11.681 60.6437 12.1367C61.3859 12.5924 61.9621 13.224 62.3723 14.0312C62.7824 14.832 62.9875 15.7598 62.9875 16.8145V17.4883H55.5266C55.5591 18.3281 55.8065 19.0052 56.2687 19.5195C56.731 20.0339 57.3755 20.291 58.2023 20.291C58.8208 20.291 59.3319 20.1576 59.7355 19.8906C60.1392 19.6172 60.4126 19.2591 60.5559 18.8164H62.8605C62.7303 19.487 62.4439 20.0794 62.0012 20.5938C61.565 21.1081 61.0148 21.5117 60.3508 21.8047C59.6867 22.0911 58.951 22.2344 58.1437 22.2344ZM55.5461 15.7891H60.6242C60.5461 15.0534 60.2792 14.474 59.8234 14.0508C59.3742 13.6211 58.7948 13.4062 58.0852 13.4062C57.369 13.4062 56.7863 13.6211 56.3371 14.0508C55.8944 14.474 55.6307 15.0534 55.5461 15.7891ZM66.5281 16.1699V22H64.0672V11.6875H66.4891V13.2695C67.2052 12.0781 68.2599 11.4824 69.6531 11.4824C70.7339 11.4824 71.616 11.8307 72.2996 12.5273C72.9897 13.224 73.3348 14.2331 73.3348 15.5547V22H70.8641V15.9453C70.8641 15.1901 70.6818 14.6172 70.3172 14.2266C69.9526 13.8359 69.4415 13.6406 68.784 13.6406C68.1395 13.6406 67.6023 13.8424 67.1727 14.2461C66.743 14.6497 66.5281 15.291 66.5281 16.1699ZM77.393 16.1699V22H74.932V7.44922H77.393V13.2012C78.1091 12.0553 79.1508 11.4824 80.518 11.4824C81.5987 11.4824 82.4809 11.8307 83.1645 12.5273C83.8546 13.224 84.1996 14.2331 84.1996 15.5547V22H81.7289V15.9453C81.7289 15.1901 81.5466 14.6172 81.182 14.2266C80.8174 13.8359 80.3064 13.6406 79.6488 13.6406C79.0043 13.6406 78.4672 13.8424 78.0375 14.2461C77.6078 14.6497 77.393 15.291 77.393 16.1699ZM90.4062 22.2344C89.3906 22.2344 88.502 22.0098 87.7402 21.5605C86.9785 21.1048 86.3828 20.4733 85.9531 19.666C85.5299 18.8587 85.3184 17.9212 85.3184 16.8535C85.3184 15.7858 85.5299 14.8483 85.9531 14.041C86.3828 13.2272 86.9785 12.5924 87.7402 12.1367C88.502 11.681 89.3906 11.4531 90.4062 11.4531C91.4154 11.4531 92.3008 11.681 93.0625 12.1367C93.8307 12.5924 94.4264 13.2272 94.8496 14.041C95.2793 14.8483 95.4941 15.7858 95.4941 16.8535C95.4941 17.9212 95.2793 18.8587 94.8496 19.666C94.4264 20.4733 93.8307 21.1048 93.0625 21.5605C92.3008 22.0098 91.4154 22.2344 90.4062 22.2344ZM90.4062 20.1738C91.194 20.1738 91.8223 19.8776 92.291 19.2852C92.7598 18.6927 92.9941 17.8822 92.9941 16.8535C92.9941 15.8249 92.7598 15.0111 92.291 14.4121C91.8223 13.8132 91.194 13.5137 90.4062 13.5137C89.612 13.5137 88.9805 13.8132 88.5117 14.4121C88.043 15.0046 87.8086 15.8184 87.8086 16.8535C87.8086 17.8822 88.043 18.6927 88.5117 19.2852C88.9805 19.8776 89.612 20.1738 90.4062 20.1738ZM100.275 22.2051C99.1943 22.2051 98.3121 21.8568 97.6285 21.1602C96.9449 20.4635 96.6031 19.4544 96.6031 18.1328V11.6875H99.0641V17.7422C99.0641 18.4974 99.2464 19.0703 99.6109 19.4609C99.9755 19.8516 100.487 20.0469 101.144 20.0469C101.795 20.0469 102.332 19.8451 102.755 19.4414C103.185 19.0378 103.4 18.3965 103.4 17.5176V11.6875H105.871V22H103.449V20.418C102.726 21.6094 101.668 22.2051 100.275 22.2051ZM111.511 22.2441C110.254 22.2441 109.203 21.9512 108.357 21.3652C107.517 20.7728 107.058 19.9232 106.98 18.8164H109.411C109.463 19.3177 109.665 19.7083 110.017 19.9883C110.368 20.2617 110.853 20.3984 111.472 20.3984C112.064 20.3984 112.53 20.2812 112.868 20.0469C113.213 19.8125 113.386 19.513 113.386 19.1484C113.386 18.8359 113.259 18.5853 113.005 18.3965C112.751 18.2077 112.409 18.0677 111.98 17.9766L110.222 17.6152C108.217 17.1986 107.214 16.2057 107.214 14.6367C107.214 13.6862 107.592 12.9212 108.347 12.3418C109.102 11.7559 110.108 11.4629 111.364 11.4629C112.614 11.4629 113.63 11.7721 114.411 12.3906C115.199 13.0026 115.606 13.8392 115.632 14.9004H113.318C113.305 14.4382 113.126 14.0573 112.78 13.7578C112.435 13.4583 111.983 13.3086 111.423 13.3086C110.883 13.3086 110.456 13.429 110.144 13.6699C109.831 13.9108 109.675 14.207 109.675 14.5586C109.675 14.8646 109.795 15.1152 110.036 15.3105C110.277 15.4993 110.613 15.6426 111.042 15.7402L112.898 16.1211C113.92 16.3359 114.672 16.6745 115.154 17.1367C115.642 17.599 115.886 18.2077 115.886 18.9629C115.886 19.6335 115.697 20.2161 115.32 20.7109C114.948 21.1992 114.434 21.5768 113.777 21.8438C113.119 22.1107 112.364 22.2441 111.511 22.2441ZM121.516 22.2344C120.488 22.2344 119.596 22.0033 118.841 21.541C118.085 21.0788 117.503 20.444 117.093 19.6367C116.689 18.8229 116.487 17.8952 116.487 16.8535C116.487 15.8053 116.695 14.8776 117.112 14.0703C117.535 13.2565 118.118 12.6185 118.86 12.1562C119.602 11.6875 120.455 11.4531 121.419 11.4531C122.408 11.4531 123.274 11.681 124.016 12.1367C124.759 12.5924 125.335 13.224 125.745 14.0312C126.155 14.832 126.36 15.7598 126.36 16.8145V17.4883H118.899C118.932 18.3281 119.179 19.0052 119.641 19.5195C120.104 20.0339 120.748 20.291 121.575 20.291C122.193 20.291 122.705 20.1576 123.108 19.8906C123.512 19.6172 123.785 19.2591 123.929 18.8164H126.233C126.103 19.487 125.817 20.0794 125.374 20.5938C124.938 21.1081 124.387 21.5117 123.723 21.8047C123.059 22.0911 122.324 22.2344 121.516 22.2344ZM118.919 15.7891H123.997C123.919 15.0534 123.652 14.474 123.196 14.0508C122.747 13.6211 122.167 13.4062 121.458 13.4062C120.742 13.4062 120.159 13.6211 119.71 14.0508C119.267 14.474 119.003 15.0534 118.919 15.7891Z" fill="#222623"/>
<defs>
<clipPath id="clip0_239_5">
<rect width="23" height="14" fill="white" transform="translate(0 8)"/>
</clipPath>
</defs>
</svg>
