<svg width="48" height="49" viewBox="0 0 48 49" fill="none" xmlns="http://www.w3.org/2000/svg">
<rect y="0.5" width="48" height="48" rx="24" fill="white"/>
<path d="M24 48.5C37.3001 48.5 48 37.8001 48 24.5C48 11.1999 37.3001 0.5 24 0.5C10.6999 0.5 0 11.1999 0 24.5C0 37.8001 10.6999 48.5 24 48.5Z" fill="#2775CA"/>
<path d="M30.6001 28.3C30.6001 24.8 28.5001 23.6 24.3001 23.1001C21.3001 22.7 20.7001 21.9001 20.7001 20.5C20.7001 19.0998 21.7002 18.2 23.7001 18.2C25.5001 18.2 26.5002 18.8 27.0001 20.3C27.1002 20.6 27.4002 20.8 27.7002 20.8H29.3C29.7001 20.8 30.0001 20.5 30.0001 20.1001V20C29.6 17.8 27.8 16.1 25.5001 15.9001V13.5001C25.5001 13.1 25.2001 12.8 24.7002 12.7H23.2002C22.8001 12.7 22.5001 13 22.4 13.5001V15.8C19.4 16.2001 17.5002 18.2 17.5002 20.7001C17.5002 24.0001 19.5001 25.3 23.7001 25.8001C26.5002 26.3 27.4002 26.9 27.4002 28.5001C27.4002 30.1002 26 31.2001 24.1002 31.2001C21.5 31.2001 20.6 30.1 20.3 28.6C20.2002 28.2001 19.9002 28 19.6002 28H17.9C17.5002 28 17.2002 28.3 17.2002 28.7V28.8001C17.6 31.3 19.2001 33.1 22.5001 33.6001V36.0001C22.5001 36.4 22.8001 36.7 23.3 36.8H24.8C25.2001 36.8 25.5001 36.5 25.6002 36.0001V33.6001C28.6002 33.1 30.6001 31 30.6001 28.3Z" fill="white"/>
<path d="M18.899 38.8C11.099 36.0001 7.09894 27.3001 9.9991 19.6C11.4991 15.4 14.7991 12.2 18.899 10.7C19.2991 10.5001 19.499 10.2001 19.499 9.69996V8.30004C19.499 7.89996 19.2991 7.59996 18.899 7.50012C18.7989 7.50012 18.599 7.50012 18.4989 7.59996C8.99902 10.6 3.79894 20.7001 6.79894 30.2C8.59894 35.8 12.899 40.1 18.4989 41.9C18.899 42.1 19.2991 41.9 19.3989 41.5C19.499 41.4001 19.499 41.3 19.499 41.1001V39.7C19.499 39.4 19.199 39.0001 18.899 38.8ZM29.4991 7.59996C29.099 7.40004 28.6989 7.59996 28.5991 8.00004C28.499 8.10012 28.499 8.19996 28.499 8.40012V9.80004C28.499 10.2001 28.799 10.6 29.099 10.8001C36.899 13.6 40.8991 22.3 37.9989 30.0001C36.4989 34.2001 33.1989 37.4 29.099 38.9C28.6989 39.1 28.499 39.4 28.499 39.9001V41.3C28.499 41.7001 28.6989 42.0001 29.099 42.1C29.1991 42.1 29.399 42.1 29.4991 42.0001C38.999 39.0001 44.1991 28.9 41.1991 19.4C39.3991 13.7 34.9989 9.39996 29.4991 7.59996Z" fill="white"/>
</svg>
